# xmcd
#
# Track frame offsets:
# 150
# 11400
# 24675
# 36975
# 51675
# 63975
# 75600
# 89100
# 101925
# 115350
# 129450
# 140175
# 153525
# 173475
# 189750
#
# Disc length: 2674 seconds
#
#
# Revision: 2
# Processed by: cddbd v1.5.1PL0 Copyright (c) Steve Scherf et al.
# Submitted via: FreeRIP 2.80 
#
DISCID=d50a700f
DTITLE=Muddy Waters - Collection
DYEAR=1900
DGENRE=
TTITLE0=I Can't Call Her Sugar
TTITLE1=You Can't Lose What You Ain't Never Had
TTITLE2=I Can't Be Satisfied
TTITLE3=Baby Please Don't Go
TTITLE4=Walkin' Thru The Park
TTITLE5=Sittin' Here Drinkin'
TTITLE6=I Got A Rich Man's Woman
TTITLE7=Forty Days And Forty Nights
TTITLE8=Rollin' And Tumblin'
TTITLE9=Rollin' Stone
TTITLE10=She's Allright
TTITLE11=Hoochie Coochie Man
TTITLE12=Where's My Woman Been
TTITLE13=Got My Mojo Workin'
TTITLE14=Standin' And Cryin'
EXTD=
EXTT0=
EXTT1=
EXTT2=
EXTT3=
EXTT4=
EXTT5=
EXTT6=
EXTT7=
EXTT8=
EXTT9=
EXTT10=
EXTT11=
EXTT12=
EXTT13=
EXTT14=
PLAYORDER=
